<svg id="Layer_1" data-name="Layer 1" xmlns="http://www.w3.org/2000/svg" viewBox="0 0 368.27 396.39"><defs><style>.cls-1{fill:#eda68d;}.cls-2{fill:#3fd9f2;}.cls-3{fill:#294080;}.cls-4{fill:#e8595b;}.cls-5{fill:#0067c5;}.cls-6{fill:#a5e0fb;}.cls-7{fill:#80cce6;}.cls-8{fill:#66b6cc;}.cls-9{fill:#00143a;opacity:0.15;isolation:isolate;}.cls-10{fill:#f6b59b;}.cls-11{fill:#151313;}.cls-12{fill:#611fff;}.cls-13{fill:#002c46;}.cls-14{fill:#e6c0ac;}.cls-15{fill:#fff;}.cls-16{fill:#ea575b;}.cls-17{fill:#491af0;}.cls-18{fill:#ceecff;}.cls-19{fill:#cd4347;}.cls-20{fill:#0d121e;}.cls-21{fill:#00305e;}.cls-22{fill:#4819f1;}.cls-23{fill:#41b4ff;}.cls-24{fill:#5f1cf9;}.cls-25{fill:#f9d14f;}</style></defs><title>support-lady</title><path class="cls-1" d="M205.68,238.69a1.93,1.93,0,0,1,.73.11l43.73,2.62.84-17.83-41-4.4-16.36-35.55-16.47.1c-1.57,4.09,3.15,4.83,21.4,49.6A9,9,0,0,0,205.68,238.69Z" transform="translate(-6.96 -4)"/><path class="cls-2" d="M196.34,185.63l8.5,12.9L182.29,210.8l-5.66-16c-2-5.56.31-11.64,5.24-14.06h0C187,178.19,193.3,180.39,196.34,185.63Z" transform="translate(-6.96 -4)"/><circle class="cls-3" cx="142.82" cy="106.24" r="16.57"/><path class="cls-4" d="M166.46,110.24s-15.21.94-13.53,16" transform="translate(-6.96 -4)"/><path class="cls-5" d="M17.45,396.3c0,2.31,80.11,4.09,178.89,4.09s178.9-1.89,178.9-4.09-80.12-4.09-178.9-4.09S17.45,394,17.45,396.3Z" transform="translate(-6.96 -4)"/><path class="cls-6" d="M212,387.28a5.07,5.07,0,0,1-4.93-4H121a5,5,0,0,1-4.93,4,5,5,0,0,1-5-5,9.13,9.13,0,0,1,9.12-9.13h88a9.13,9.13,0,0,1,9.12,9.13A5.28,5.28,0,0,1,212,387.28Z" transform="translate(-6.96 -4)"/><path class="cls-6" d="M224.55,288.61l-14.16-7.55c-14,0-23-7.45-25.06-20.87-2.62-16.46-6.92-62.92-6.92-63.44-.31-3.88-3.77-6.29-7.76-5.56H90.54a8.1,8.1,0,0,0-6.5,8.28c.21,2.21,4.93,54.95,7.65,71.94,3.15,19.61,17.2,31.35,37.65,31.35h93.53a8.11,8.11,0,0,0,7.87-7A6.12,6.12,0,0,0,224.55,288.61Z" transform="translate(-6.96 -4)"/><path class="cls-7" d="M116.65,224.54h49.81a1.37,1.37,0,0,0,0-2.73H116.65a1.38,1.38,0,0,0-1.36,1.36A1.32,1.32,0,0,0,116.65,224.54Z" transform="translate(-6.96 -4)"/><path class="cls-7" d="M118.43,241.21h49.81a1.37,1.37,0,0,0,0-2.73H118.43a1.37,1.37,0,0,0,0,2.73Z" transform="translate(-6.96 -4)"/><path class="cls-7" d="M120.21,257.78H170a1.37,1.37,0,1,0,0-2.73H120.21a1.39,1.39,0,0,0-1.36,1.36A1.33,1.33,0,0,0,120.21,257.78Z" transform="translate(-6.96 -4)"/><path class="cls-7" d="M156,302.76H129.44c-20.45,0-34.5-11.74-37.64-31.35-2.73-17-7.45-69.63-7.66-71.94a7.94,7.94,0,0,1,6.5-8.28,6.41,6.41,0,0,1,7.76,5.56c0,.52,4.93,54.53,7.55,71,2.1,13.42,11,20.87,25.06,20.87h26.53a6.21,6.21,0,0,1,6.3,7A8.11,8.11,0,0,1,156,302.76Z" transform="translate(-6.96 -4)"/><path class="cls-7" d="M172.54,314.93H155.45a3.39,3.39,0,0,1-3.36-3.36v-8.81H176v8.81A3.47,3.47,0,0,1,172.54,314.93Z" transform="translate(-6.96 -4)"/><rect class="cls-6" x="149.01" y="310.93" width="16.04" height="57.15"/><path class="cls-7" d="M174.74,378.26H153.25V366.83a3.3,3.3,0,0,1,3.35-3.35h14.89a3.31,3.31,0,0,1,3.36,3.35v11.43Z" transform="translate(-6.96 -4)"/><path class="cls-7" d="M185.54,387.28a5.07,5.07,0,0,1-4.93-4H147.48a5,5,0,0,1-4.93,4,5,5,0,0,1-5-5,9.13,9.13,0,0,1,9.12-9.13h34.92a9.13,9.13,0,0,1,9.12,9.13A5.19,5.19,0,0,1,185.54,387.28Z" transform="translate(-6.96 -4)"/><path class="cls-8" d="M151,389.17a6.82,6.82,0,1,1-6.81-6.82A6.68,6.68,0,0,1,151,389.17Z" transform="translate(-6.96 -4)"/><path class="cls-7" d="M147.69,389.17a6.82,6.82,0,1,1-6.82-6.82A6.68,6.68,0,0,1,147.69,389.17Z" transform="translate(-6.96 -4)"/><path class="cls-8" d="M194,389.17a6.82,6.82,0,1,1-6.82-6.82A6.68,6.68,0,0,1,194,389.17Z" transform="translate(-6.96 -4)"/><path class="cls-7" d="M190.68,389.17a6.82,6.82,0,1,1-6.82-6.82A6.68,6.68,0,0,1,190.68,389.17Z" transform="translate(-6.96 -4)"/><path class="cls-7" d="M124.51,389.17a6.82,6.82,0,1,1-6.81-6.82A6.68,6.68,0,0,1,124.51,389.17Z" transform="translate(-6.96 -4)"/><path class="cls-6" d="M121.16,389.17a6.82,6.82,0,1,1-6.82-6.82A6.68,6.68,0,0,1,121.16,389.17Z" transform="translate(-6.96 -4)"/><path class="cls-7" d="M220.57,389.17a6.82,6.82,0,1,1-6.82-6.82A6.81,6.81,0,0,1,220.57,389.17Z" transform="translate(-6.96 -4)"/><path class="cls-6" d="M217.21,389.17a6.82,6.82,0,1,1-6.82-6.82A6.68,6.68,0,0,1,217.21,389.17Z" transform="translate(-6.96 -4)"/><polygon class="cls-9" points="168.93 304.43 145.13 299.92 145.13 298.76 168.93 298.76 168.93 304.43"/><path class="cls-10" d="M233,380.36H214.17L212,333.49c7.44.94,14.78,2.51,22,4.09C233.25,360.75,233,380.36,233,380.36Z" transform="translate(-6.96 -4)"/><path class="cls-11" d="M213.33,376.16l-.21,17.41,45.83.53v-2.21a6.08,6.08,0,0,0-4.62-6l-19.92-9.55Z" transform="translate(-6.96 -4)"/><path class="cls-12" d="M158.59,175.46h-2.2c-9.44.63-13,8.39-14.36,16.15l-10.28,64c44.88,11.43,66.06.42,66.06.42l-1.89-63.12c.42-7.34-2.72-15.63-10.59-16.88h0Z" transform="translate(-6.96 -4)"/><path class="cls-9" d="M199.28,258.72l-.63,26.43h-8.28l-10.91-25.59C179.57,259.56,195.92,257.25,199.28,258.72Z" transform="translate(-6.96 -4)"/><path class="cls-13" d="M239,363.79H209.56l-1.79-78.64-18.24,2.3L170,256.83s44-9.64,62.6,4.62c1.47,1.15,2.73,5.14,2.73,7Z" transform="translate(-6.96 -4)"/><polygon class="cls-10" points="157.61 175.44 172.29 175.03 172.81 143.36 158.13 145.66 157.61 175.44"/><path class="cls-10" d="M182.19,175.88l-20.77-.42s0,7.87,13.74,8C184.81,183.64,182.19,175.88,182.19,175.88Z" transform="translate(-6.96 -4)"/><path class="cls-14" d="M224,239a9,9,0,1,0,8.91-8.71A8.87,8.87,0,0,0,224,239Z" transform="translate(-6.96 -4)"/><path class="cls-14" d="M218.36,243.41l9.34-.1a4.41,4.41,0,0,0,4.4-4.3h0a4.29,4.29,0,0,0-4.51-4.2l-9.33.11a4.42,4.42,0,0,0-4.41,4.3h0A4.36,4.36,0,0,0,218.36,243.41Z" transform="translate(-6.96 -4)"/><path class="cls-10" d="M167.82,226.21l53.27-.31L220,242.15H159a8.72,8.72,0,0,1-7.76-5.24l-5.66-47a8.63,8.63,0,0,1,8.6-9.33h0a8.65,8.65,0,0,1,8.6,7.86Z" transform="translate(-6.96 -4)"/><path class="cls-6" d="M232.83,188.88l-17.72,47.61h57.47l15.83-43.31a3.12,3.12,0,0,0-2.94-4.19H232.83Z" transform="translate(-6.96 -4)"/><path class="cls-7" d="M232.83,188.88h-2.72a3.66,3.66,0,0,0-3.36,2.31l-16.67,45.2h5Z" transform="translate(-6.96 -4)"/><path class="cls-6" d="M268.28,241H213.44l1.67-4.61h57.36v.41A4.14,4.14,0,0,1,268.28,241Z" transform="translate(-6.96 -4)"/><path class="cls-7" d="M213.44,241H179.67a2.33,2.33,0,0,1-2.31-2.31h0a2.32,2.32,0,0,1,2.31-2.3h35.44Z" transform="translate(-6.96 -4)"/><path class="cls-15" d="M247.31,215.62c-1.05,3.25.21,6.71,2.93,7.55s5.77-1,6.92-4.3-.21-6.71-2.93-7.55S248.35,212.27,247.31,215.62Z" transform="translate(-6.96 -4)"/><polyline class="cls-6" points="71.1 244.44 58.72 391.14 68.68 391.14 88.71 243.4 71.1 244.44"/><polygon class="cls-9" points="88.29 245.91 87.45 251.78 70.47 251.16 70.99 245.91 88.29 245.91"/><rect class="cls-16" x="38.27" y="237" width="293.3" height="8.91"/><polygon class="cls-6" points="301.37 245.91 322.55 390.31 311.96 390.52 284.59 245.91 301.37 245.91"/><polygon class="cls-9" points="301.37 245.91 302.42 252.2 285.75 251.47 284.59 245.91 301.37 245.91"/><path class="cls-17" d="M195.19,185.42l6,14.16a12.59,12.59,0,0,1-1,10.59l-6.92,10.28L184,199.79Z" transform="translate(-6.96 -4)"/><path class="cls-18" d="M85.61,221.49s3.15-7.13-3.46-11.84-7.34-11.54-3.36-13.32c7.13-3.25,22.86-12.9,23.49-24,.74-12.68-5.55-25.9-29.88-25.58s-8.6,22-15.21,28-23.8,4.72-23.7,16.77,37,18.88,37,18.88,13,4.09,11.53,11.22h3.57Z" transform="translate(-6.96 -4)"/><path class="cls-19" d="M95.26,216.15H73.45s-1.26,25.27,10.9,25.27C95.36,241.42,95.26,216.15,95.26,216.15Z" transform="translate(-6.96 -4)"/><path class="cls-19" d="M67.78,227.05a5.67,5.67,0,0,1,11.33,0,5.64,5.64,0,0,1-5.66,5.66A5.78,5.78,0,0,1,67.78,227.05Zm2,0a3.57,3.57,0,1,0,3.56-3.56A3.59,3.59,0,0,0,69.78,227.05Z" transform="translate(-6.96 -4)"/><ellipse class="cls-15" cx="30.41" cy="157.93" rx="6.4" ry="5.24"/><path class="cls-1" d="M164.88,154.91s0,19.19,14.37,19.19V160.36Z" transform="translate(-6.96 -4)"/><path class="cls-10" d="M192.88,376.79H174l-1.26-41.63c7.44.84,14.78,2.21,22,3.67C194,359.49,192.88,376.79,192.88,376.79Z" transform="translate(-6.96 -4)"/><path class="cls-20" d="M173,373.12l-.21,15.52,45.82.42v-2a5.65,5.65,0,0,0-4.61-5.35L194,373.23Z" transform="translate(-6.96 -4)"/><path class="cls-21" d="M169.39,363.79l-1.25-76.13s-39.12,2-36.29-32.09c0,0,57.26-3.67,61.45,0,11.43,10.07,6,108.22,6,108.22" transform="translate(-6.96 -4)"/><path class="cls-3" d="M178.31,107.83s-22.44-.11-25.48,18.56c-2.84,17.51,11.11,23.8,11.11,23.8Z" transform="translate(-6.96 -4)"/><path class="cls-10" d="M183.65,168.64h.63a19.89,19.89,0,0,0,18.35-21.49L200.75,123l-40.58,3.15,1.88,24.11A20.14,20.14,0,0,0,183.65,168.64Z" transform="translate(-6.96 -4)"/><path class="cls-3" d="M158.91,141.49l4.82,6.29s5.35,2.93,4.51-7.13c-.63-8.5,5.66-6.29,5.66-6.29s26.32,8.7,33.56-2c8.91-13.21-13.32-26.21-29.15-24.53l-21,15Z" transform="translate(-6.96 -4)"/><path class="cls-10" d="M166.14,147.57a6.68,6.68,0,1,1-7.23-6.08A6.68,6.68,0,0,1,166.14,147.57Z" transform="translate(-6.96 -4)"/><path class="cls-15" d="M161,151.76a1.15,1.15,0,1,1-1.25-1A1.1,1.1,0,0,1,161,151.76Z" transform="translate(-6.96 -4)"/><path d="M183,143.69a1.77,1.77,0,0,0,1.88,1.68,1.87,1.87,0,0,0,1.79-1.89,1.78,1.78,0,0,0-1.89-1.68A1.73,1.73,0,0,0,183,143.69Z" transform="translate(-6.96 -4)"/><path d="M196.13,143.37a1.77,1.77,0,0,0,1.89,1.68,1.85,1.85,0,0,0,1.78-1.89,1.76,1.76,0,0,0-1.88-1.67A1.93,1.93,0,0,0,196.13,143.37Z" transform="translate(-6.96 -4)"/><path class="cls-1" d="M192.88,145.58l3.78,3.56a.64.64,0,0,1-.53,1.05l-3.88.1.63-4.71Z" transform="translate(-6.96 -4)"/><path class="cls-15" d="M198,153.34l-15.83.52s.84,6.29,9.43,5.66C197.39,159.21,198,153.34,198,153.34Z" transform="translate(-6.96 -4)"/><path class="cls-22" d="M166,189.2l2.83,15.2L143.28,207l1.05-17a11.26,11.26,0,0,1,10.28-10.91h0C160.38,178.71,165.3,183.12,166,189.2Z" transform="translate(-6.96 -4)"/><path class="cls-23" d="M7,74.37a8.24,8.24,0,0,1,8.29-8.28H59.08a8.23,8.23,0,0,1,8.28,8.28v27.9a8.23,8.23,0,0,1-8.28,8.28H46.18a6.93,6.93,0,0,0-5.56,2.94l-2.51,3.67a1,1,0,0,1-.84.42,1.07,1.07,0,0,1-.84-.42l-2.52-3.67a6.63,6.63,0,0,0-5.55-2.94H15.25A8.24,8.24,0,0,1,7,102.27Z" transform="translate(-6.96 -4)"/><path class="cls-24" d="M264.61,72.17a11.68,11.68,0,0,1,11.64-11.64H337.7a11.69,11.69,0,0,1,11.64,11.64v39.22A11.68,11.68,0,0,1,337.7,123H319.55a9.51,9.51,0,0,0-7.86,4.19l-3.46,5.14A1.48,1.48,0,0,1,307,133a1.51,1.51,0,0,1-1.26-.63l-3.46-5.14a9.51,9.51,0,0,0-7.86-4.19H276.25a11.68,11.68,0,0,1-11.64-11.64V72.17Z" transform="translate(-6.96 -4)"/><circle class="cls-25" cx="152.91" cy="21.71" r="21.71"/><path class="cls-15" d="M286.21,86.12V105s0,.11.1.11a3.61,3.61,0,0,0,3.88,3h33.66a3.66,3.66,0,0,0,3.88-4v-18c-.73.52-1.36,1.15-2,1.68-4.09,2.83-8.07,5.66-12.16,8.49a25.17,25.17,0,0,1-4,2.41,5.87,5.87,0,0,1-4.4.32A12.57,12.57,0,0,1,302,97.44c-3.25-2.2-6.39-4.4-9.54-6.71C290.3,89.26,288,88,286.21,86.12Z" transform="translate(-6.96 -4)"/><path class="cls-15" d="M286.21,78.78V80c.21.52.31,1.15.52,1.67a11.15,11.15,0,0,0,3.78,4.2c2.83,2,5.77,4,8.6,6,1.78,1.25,3.56,2.41,5.34,3.67a4.26,4.26,0,0,0,5.14,0,.11.11,0,0,0,.11-.11c1.05-.73,2.2-1.47,3.25-2.2,3.67-2.52,7.34-5.14,11-7.66a9.62,9.62,0,0,0,3.56-4.4,3.93,3.93,0,0,0-3.88-5.45H290.09a3.68,3.68,0,0,0-3.36,1.89A2.29,2.29,0,0,0,286.21,78.78Z" transform="translate(-6.96 -4)"/><path class="cls-15" d="M156,30.23V29.18a8.78,8.78,0,0,1,2.41-6.29c1.26-1.58,2.31-2.83,2.31-4.2s-.94-2.3-2.94-2.41a8.41,8.41,0,0,0-4,1.16L152.41,13a13.91,13.91,0,0,1,6.71-1.68c5.24,0,7.65,2.94,7.65,6.29,0,3.05-1.89,5-3.35,6.72a6.77,6.77,0,0,0-2,5v.73H156Zm-1.05,5.56a3.5,3.5,0,0,1,3.57-3.67,3.44,3.44,0,0,1,3.56,3.67,3.57,3.57,0,1,1-7.13,0Z" transform="translate(-6.96 -4)"/><path class="cls-15" d="M35.07,80a.68.68,0,0,0,.63.63.69.69,0,0,0,.63-.63.68.68,0,0,0-.63-.63A.6.6,0,0,0,35.07,80Z" transform="translate(-6.96 -4)"/><path class="cls-15" d="M46.5,89.89a.69.69,0,0,0-.63-.63.6.6,0,0,0-.63.63.67.67,0,0,0,.63.63A.68.68,0,0,0,46.5,89.89Z" transform="translate(-6.96 -4)"/><path class="cls-15" d="M19.86,82.45a8.44,8.44,0,0,0,2.41,5.87,4,4,0,0,1-.94,3.57.49.49,0,0,0-.1.63.68.68,0,0,0,.52.42,7.07,7.07,0,0,0,4.72-1.89,13.6,13.6,0,0,0,3.67.63c.31,4.82,4.93,8.6,10.48,8.6a14.14,14.14,0,0,0,4.3-.63,6.61,6.61,0,0,0,4.72,1.88c.21,0,.53-.1.53-.42a.62.62,0,0,0-.11-.62,3.74,3.74,0,0,1-.94-3.57,8.64,8.64,0,0,0,2.41-5.87c0-5.14-4.93-9-10.28-9.23-.31-4.82-4.92-8.6-10.48-8.6S19.86,77.1,19.86,82.45Zm11.43,8.6c0-4.62,4.3-8,9.23-8,5.24,0,9.65,3.67,9.65,8A7.16,7.16,0,0,1,48,96.19a.32.32,0,0,0-.1.21,5,5,0,0,0,.42,3.67,5,5,0,0,1-2.73-1.68.62.62,0,0,0-.73-.11,13,13,0,0,1-4.2.74C35.49,99.12,31.29,95.56,31.29,91.05Zm-10.17-8.6c0-4.3,4.4-8,9.65-8,4.82,0,8.91,3.25,9.23,7.44a12.31,12.31,0,0,0-4.62,1.26h-10a.68.68,0,0,0-.63.63.67.67,0,0,0,.63.63h8.07a9,9,0,0,0-3.35,6.19,13.58,13.58,0,0,1-3.67-.74.94.94,0,0,0-.74.11A5.69,5.69,0,0,1,23,91.68,5,5,0,0,0,23.43,88a.34.34,0,0,0-.11-.21A7.82,7.82,0,0,1,21.12,82.45Z" transform="translate(-6.96 -4)"/><path class="cls-15" d="M35.07,89.89a.67.67,0,0,0,.63.63h7.76a.67.67,0,0,0,.62-.63.68.68,0,0,0-.62-.63H35.7A.56.56,0,0,0,35.07,89.89Z" transform="translate(-6.96 -4)"/><path class="cls-15" d="M35.07,93.56a.67.67,0,0,0,.63.63H46a.67.67,0,0,0,.63-.63c0-.31-.42-.62-.73-.62H35.59A.58.58,0,0,0,35.07,93.56Z" transform="translate(-6.96 -4)"/><path class="cls-15" d="M24.79,80a.68.68,0,0,0,.63.63h7.76a.69.69,0,0,0,.63-.63.68.68,0,0,0-.63-.63H25.42A.6.6,0,0,0,24.79,80Z" transform="translate(-6.96 -4)"/></svg>