<?xml version="1.0"?>
<svg xmlns="http://www.w3.org/2000/svg" height="100px" viewBox="0 0 368 368" width="100px"><g><path d="m24.761719 276.34375c.007812 0 .007812 0 0 0 16.109375 27.640625 39.238281 50.769531 66.886719 66.886719.007812 0 .007812 0 .015624.007812 27.921876 16.203125 59.847657 24.761719 92.335938 24.761719 101.464844 0 184-82.542969 184-184 0-32.488281-8.558594-64.414062-24.761719-92.335938 0 0-.007812 0-.007812-.007812 0 0 0 0 0-.007812-16.109375-27.632813-39.230469-50.761719-66.878907-66.878907 0 0-.007812 0-.015624-.007812-27.921876-16.203125-59.847657-24.761719-92.335938-24.761719-101.464844 0-184 82.542969-184 184 0 32.488281 8.558594 64.414062 24.761719 92.34375 0-.007812 0-.007812 0 0zm208.605469-201.679688c3.335937 1.496094 6.59375 3.136719 9.753906 4.910157 18.96875 10.671875 34.613281 26.328125 45.3125 45.328125 1.773437 3.152344 3.40625 6.402344 4.902344 9.730468 0 .007813.007812.007813.007812.015626.007812.015624.015625.023437.023438.039062 7.058593 15.425781 10.632812 32.007812 10.632812 49.3125 0 66.167969-53.832031 120-120 120-17.304688 0-33.894531-3.574219-49.367188-10.664062-3.335937-1.496094-6.59375-3.136719-9.753906-4.910157-18.96875-10.671875-34.613281-26.328125-45.3125-45.328125-1.773437-3.152344-3.40625-6.402344-4.902344-9.730468 0-.007813-.007812-.007813-.007812-.015626-.007812-.015624-.015625-.023437-.023438-.039062-7.058593-15.425781-10.632812-32.007812-10.632812-49.3125 0-66.167969 53.832031-120 120-120 17.304688 0 33.894531 3.574219 49.367188 10.664062zm-191.582032 198.871094 23.390625-23.390625c.082031.144531.167969.269531.25.414063.390625.707031.839844 1.378906 1.246094 2.082031 1.472656 2.527344 3.007813 5.007813 4.640625 7.421875.703125 1.050781 1.429688 2.066406 2.167969 3.089844 1.496093 2.09375 3.046875 4.136718 4.65625 6.136718.75.933594 1.488281 1.886719 2.269531 2.800782 2.25 2.644531 4.578125 5.222656 7.027344 7.6875.246094.246094.496094.496094.742187.742187 2.472657 2.457031 5.054688 4.792969 7.710938 7.046875.929687.792969 1.898437 1.539063 2.847656 2.304688 1.976563 1.585937 3.984375 3.121094 6.058594 4.59375 1.054687.75 2.101562 1.503906 3.183593 2.222656 2.351563 1.585938 4.777344 3.082031 7.230469 4.519531.753907.441407 1.480469.921875 2.25 1.34375.144531.082031.277344.175781.421875.257813l-23.398437 23.390625c-21.234375-13.40625-39.28125-31.457031-52.695313-52.664063zm142.214844 78.464844c-26.144531 0-51.878906-6.0625-75.0625-17.625l24.375-24.382812c16.023438 6.527343 33.007812 10.007812 50.6875 10.007812 74.992188 0 136-61.007812 136-136 0-17.695312-3.480469-34.695312-10-50.6875l24.375-24.375c11.5625 23.183594 17.625 48.917969 17.625 75.0625 0 92.640625-75.367188 168-168 168zm142.214844-257.535156-23.390625 23.390625c-.082031-.144531-.167969-.269531-.25-.414063-.390625-.714844-.839844-1.378906-1.246094-2.082031-1.472656-2.527344-3.007813-5-4.632813-7.414063-.703124-1.050781-1.429687-2.074218-2.167968-3.097656-1.496094-2.09375-3.054688-4.144531-4.664063-6.152344-.75-.933593-1.488281-1.878906-2.261719-2.792968-2.25-2.644532-4.578124-5.222656-7.027343-7.695313-.246094-.246093-.496094-.496093-.742188-.742187-2.472656-2.457032-5.054687-4.792969-7.71875-7.050782-.929687-.789062-1.890625-1.535156-2.839843-2.292968-1.976563-1.59375-4-3.128906-6.066407-4.609375-1.046875-.75-2.09375-1.496094-3.167969-2.214844-2.359374-1.585937-4.773437-3.082031-7.238281-4.519531-.753906-.441406-1.480469-.921875-2.242187-1.34375-.144532-.082032-.277344-.175782-.421875-.257813l23.398437-23.390625c21.21875 13.421875 39.265625 31.472656 52.679688 52.679688zm-142.214844-78.464844c26.144531 0 51.878906 6.0625 75.0625 17.625l-24.375 24.382812c-16.023438-6.527343-33.007812-10.007812-50.6875-10.007812-74.992188 0-136 61.007812-136 136 0 17.695312 3.480469 34.695312 10 50.6875l-24.375 24.375c-11.5625-23.183594-17.625-48.917969-17.625-75.0625 0-92.640625 75.367188-168 168-168zm0 0" data-original="#000000" class="active-path" data-old_color="#000000" fill="#f48120"/></g> </svg>
